<svg xmlns="http://www.w3.org/2000/svg" width="14" height="13" viewBox="0 0 14 13">
  <path fill-rule="evenodd" d="M18,16 L20.767,16 L20.767,17.418 L20.807,17.418 C21.192,16.727 22.134,16 23.539,16 C26.46,16 27,17.818 27,20.183 L27,25 L24.115,25 L24.115,20.73 C24.115,19.712 24.094,18.401 22.615,18.401 C21.113,18.401 20.883,19.51 20.883,20.656 L20.883,25 L18,25 L18,16 Z M13,25 L13,16 L16,16 L16,25 L13,25 Z M16,13.5 C16,14.328 15.328,15 14.5,15 C13.672,15 13,14.328 13,13.5 C13,12.672 13.672,12 14.5,12 C15.328,12 16,12.672 16,13.5 Z" transform="translate(-13 -12)"/>
</svg>
