<svg xmlns="http://www.w3.org/2000/svg" width="16" height="13" viewBox="0 0 16 13">
  <path fill-rule="evenodd" d="M28.004,14.537 C27.416,14.8 26.782,14.975 26.12,15.053 C26.798,14.647 27.317,14.003 27.564,13.237 C26.93,13.612 26.226,13.887 25.48,14.034 C24.88,13.396 24.027,13 23.083,13 C21.27,13 19.802,14.469 19.802,16.281 C19.802,16.537 19.83,16.787 19.886,17.028 C17.158,16.89 14.739,15.584 13.12,13.597 C12.839,14.081 12.676,14.647 12.676,15.247 C12.676,16.385 13.254,17.391 14.135,17.978 C13.597,17.962 13.091,17.812 12.647,17.569 L12.647,17.61 C12.647,19.201 13.778,20.529 15.281,20.829 C15.006,20.904 14.715,20.945 14.415,20.945 C14.203,20.945 13.999,20.923 13.796,20.886 C14.215,22.189 15.427,23.139 16.862,23.167 C15.737,24.048 14.324,24.573 12.784,24.573 C12.518,24.573 12.259,24.557 12,24.526 C13.456,25.46 15.181,26.001 17.034,26.001 C23.071,26.001 26.375,20.998 26.375,16.66 C26.375,16.516 26.372,16.376 26.366,16.235 C27.007,15.776 27.563,15.197 28.003,14.538 L28.004,14.537 Z" transform="translate(-12 -13)"/>
</svg>
